<svg width="40" height="40" viewBox="0 0 40 40" fill="none" xmlns="http://www.w3.org/2000/svg">
<path fill-rule="evenodd" clip-rule="evenodd" d="M26.6699 18.3339C26.6699 13.7317 22.9391 10.0009 18.3369 10.0009L18.0672 10.0051C13.5898 10.1475 10.0039 13.8219 10.0039 18.3339C10.0039 22.936 13.7347 26.6668 18.3369 26.6668L18.6881 26.6596C20.5513 26.5823 22.2566 25.8933 23.6082 24.788L28.5798 29.7563C28.9055 30.0813 29.4329 30.0813 29.7586 29.7563L29.8343 29.6703C30.0828 29.3436 30.0578 28.8755 29.7592 28.5775L24.7883 23.6085C25.9643 22.1719 26.6699 20.3353 26.6699 18.3339ZM21.7685 24.0505L21.6544 24.1182C21.5038 24.2048 21.3499 24.2852 21.1931 24.3593L21.078 24.4133L20.8035 24.5299L20.6623 24.5837C20.2226 24.7473 19.761 24.8659 19.2833 24.9339L18.9778 24.9701L18.6966 24.991C18.5772 24.9973 18.4573 25.0005 18.3368 25.0005C14.655 25.0005 11.6704 22.0159 11.6704 18.3341C11.6704 14.6524 14.655 11.6677 18.3368 11.6677C22.0185 11.6677 25.0032 14.6524 25.0032 18.3341C25.0032 18.9198 24.9276 19.4879 24.7858 20.0292L24.7014 20.3244C24.6451 20.5049 24.5809 20.6827 24.5091 20.8574L24.3836 21.1445L24.2464 21.4232C24.1669 21.5747 24.0816 21.7232 23.9903 21.8683L23.9292 21.964C23.8018 22.1599 23.6644 22.3486 23.5177 22.5295L23.0732 23.0706L22.5322 23.5151C22.3866 23.6331 22.236 23.7451 22.0809 23.8508L21.9667 23.9265L21.7685 24.0505Z" fill="white"/>
</svg>
