<svg width="21" height="21" viewBox="0 0 21 21" fill="none" xmlns="http://www.w3.org/2000/svg">
<g clip-path="url(#clip0_51_1585)">
<circle cx="10.5" cy="10.5" r="10" fill="white"/>
<path fill-rule="evenodd" clip-rule="evenodd" d="M11 6.5H10V10H6.5V11H10V14.5H11V11H14.5V10H11V6.5Z" fill="#2D2F34"/>
<path d="M10 6.5V6.1H9.6V6.5H10ZM11 6.5H11.4V6.1H11V6.5ZM10 10V10.4H10.4V10H10ZM6.5 10V9.6H6.1V10H6.5ZM6.5 11H6.1V11.4H6.5V11ZM10 11H10.4V10.6H10V11ZM10 14.5H9.6V14.9H10V14.5ZM11 14.5V14.9H11.4V14.5H11ZM11 11V10.6H10.6V11H11ZM14.5 11V11.4H14.9V11H14.5ZM14.5 10H14.9V9.6H14.5V10ZM11 10H10.6V10.4H11V10ZM10 6.9H11V6.1H10V6.9ZM10.4 10V6.5H9.6V10H10.4ZM6.5 10.4H10V9.6H6.5V10.4ZM6.9 11V10H6.1V11H6.9ZM10 10.6H6.5V11.4H10V10.6ZM10.4 14.5V11H9.6V14.5H10.4ZM11 14.1H10V14.9H11V14.1ZM10.6 11V14.5H11.4V11H10.6ZM14.5 10.6H11V11.4H14.5V10.6ZM14.1 10V11H14.9V10H14.1ZM11 10.4H14.5V9.6H11V10.4ZM10.6 6.5V10H11.4V6.5H10.6Z" fill="#2D2F34"/>
</g>
<defs>
<clipPath id="clip0_51_1585">
<rect width="20" height="20" fill="white" transform="translate(0.5 0.5)"/>
</clipPath>
</defs>
</svg>
