<svg width="20" height="20" viewBox="0 0 20 20" fill="none" xmlns="http://www.w3.org/2000/svg">
<circle cx="10" cy="10" r="9" fill="#4F535C"/>
<path d="M10.7046 10L13.353 7.35655C13.4798 7.2298 13.5293 7.04505 13.4829 6.8719C13.4365 6.69875 13.3013 6.5635 13.1281 6.51711C12.9549 6.47071 12.7702 6.52022 12.6434 6.64697L9.99999 9.29541L7.35654 6.64697C7.1606 6.45102 6.84291 6.45102 6.64696 6.64697C6.45101 6.84292 6.45101 7.16061 6.64696 7.35655L9.29541 10L6.64696 12.6434C6.45101 12.8394 6.45101 13.1571 6.64696 13.353C6.84291 13.549 7.1606 13.549 7.35654 13.353L9.99999 10.7046L12.6434 13.353C12.7702 13.4798 12.9549 13.5293 13.1281 13.4829C13.3013 13.4365 13.4365 13.3013 13.4829 13.1281C13.5293 12.955 13.4798 12.7702 13.353 12.6434L10.7046 10Z" fill="#8E8F91" stroke="#8E8F91" stroke-width="0.5"/>
</svg>
