<svg width="24" height="24" viewBox="0 0 24 24" fill="none" xmlns="http://www.w3.org/2000/svg">
<path fill-rule="evenodd" clip-rule="evenodd" d="M17.3335 10.6668C17.3335 6.98481 14.3487 4 10.6668 4L10.451 4.00343C6.86891 4.11732 4 7.05701 4 10.6668C4 14.3487 6.98481 17.3335 10.6668 17.3335L10.9477 17.3277C12.4384 17.2659 13.8027 16.7146 14.8841 15.8304L18.8616 19.8052C19.1221 20.0652 19.5441 20.0652 19.8046 19.8052L19.8652 19.7364C20.064 19.4751 20.044 19.1005 19.8051 18.8621L15.8282 14.8868C16.769 13.7374 17.3335 12.268 17.3335 10.6668ZM13.4122 15.2404L13.3209 15.2945C13.2004 15.3638 13.0773 15.4282 12.9519 15.4874L12.8598 15.5306L12.6401 15.6239L12.5272 15.6669C12.1754 15.7979 11.8062 15.8927 11.4239 15.9471L11.1795 15.9761L10.9546 15.9928C10.8591 15.9978 10.7631 16.0004 10.6667 16.0004C7.72111 16.0004 5.33326 13.6125 5.33326 10.667C5.33326 7.72142 7.72111 5.33357 10.6667 5.33357C13.6122 5.33357 16.0001 7.72142 16.0001 10.667C16.0001 11.1356 15.9397 11.5901 15.8261 12.0231L15.7587 12.2593C15.7136 12.4037 15.6623 12.546 15.6048 12.6857L15.5044 12.9154L15.3946 13.1384C15.3311 13.2596 15.2628 13.3784 15.1897 13.4945L15.1408 13.5711C15.0389 13.7278 14.929 13.8788 14.8117 14.0235L14.4561 14.4564L14.0232 14.812C13.9067 14.9064 13.7862 14.996 13.6622 15.0806L13.5708 15.1412L13.4122 15.2404Z" fill="#B6B7BE"/>
</svg>
