<svg width="24" height="24" viewBox="0 0 24 24" fill="none" xmlns="http://www.w3.org/2000/svg">
<g id="Iconly/Light/Chart">
<g id="Chart">
<path id="Path" fill-rule="evenodd" clip-rule="evenodd" d="M16.6857 3H7.31429C4.04762 3 2 5.19648 2 8.3059V16.6941C2 19.8035 4.0381 22 7.31429 22H16.6857C19.9619 22 22 19.8035 22 16.6941V8.3059C22 5.19648 19.9619 3 16.6857 3Z" stroke="#FFF" stroke-width="1.5"/>
</g>
<path id="7" d="M10.7194 17.5113C10.0827 17.5113 9.67119 16.8382 9.96144 16.2715L13.0761 10.19C13.0797 10.1831 13.0815 10.1754 13.0815 10.1677C13.0815 10.1406 13.0596 10.1186 13.0325 10.1186H9.47218C9.05284 10.1186 8.71289 9.77864 8.71289 9.3593C8.71289 8.93995 9.05284 8.60001 9.47218 8.60001H13.7551C14.4429 8.60001 15.0004 9.15754 15.0004 9.8453C15.0004 10.0421 14.9538 10.2361 14.8643 10.4114L11.478 17.0468C11.3325 17.3319 11.0395 17.5113 10.7194 17.5113Z" fill="#FFF"/>
<path id="Vector 216" d="M8 5L8 1" stroke="#FFF" stroke-width="1.5" stroke-linecap="round"/>
<path id="Vector 218" d="M16 5L16 1" stroke="#FFF" stroke-width="1.5" stroke-linecap="round"/>
</g>
</svg>
