<svg width="24" height="24" viewBox="0 0 24 24" fill="none" xmlns="http://www.w3.org/2000/svg">
<path d="M21.4673 17.924C21.1195 18.7275 20.7078 19.4672 20.2308 20.1472C19.5805 21.0743 19.0481 21.716 18.6378 22.0724C18.0018 22.6573 17.3204 22.9568 16.5906 22.9739C16.0667 22.9739 15.435 22.8248 14.6996 22.5224C13.9617 22.2214 13.2837 22.0724 12.6637 22.0724C12.0135 22.0724 11.3161 22.2214 10.5702 22.5224C9.82315 22.8248 9.22133 22.9824 8.7612 22.998C8.06143 23.0278 7.36393 22.7197 6.6677 22.0724C6.22333 21.6848 5.66752 21.0204 5.00167 20.0791C4.28727 19.0739 3.69994 17.9084 3.23981 16.5795C2.74703 15.1442 2.5 13.7543 2.5 12.4087C2.5 10.8673 2.83306 9.53789 3.50019 8.42385C4.02448 7.529 4.72199 6.82312 5.59497 6.30493C6.46795 5.78674 7.4112 5.52267 8.42701 5.50578C8.98282 5.50578 9.7117 5.6777 10.6175 6.01559C11.5207 6.35462 12.1006 6.52655 12.3549 6.52655C12.545 6.52655 13.1893 6.32552 14.2815 5.92473C15.3143 5.55305 16.186 5.39916 16.9001 5.45978C18.8352 5.61595 20.289 6.37876 21.2558 7.75303C19.5252 8.80163 18.6691 10.2703 18.6861 12.1544C18.7017 13.622 19.2341 14.8432 20.2804 15.8129C20.7546 16.2629 21.2842 16.6107 21.8734 16.8578C21.7456 17.2283 21.6107 17.5832 21.4673 17.924ZM17.0293 0.460131C17.0293 1.61039 16.6091 2.68439 15.7714 3.67847C14.7606 4.86023 13.538 5.54311 12.2121 5.43536C12.1952 5.29736 12.1854 5.15213 12.1854 4.99951C12.1854 3.89526 12.6661 2.71349 13.5198 1.74724C13.946 1.25801 14.488 0.851218 15.1454 0.526714C15.8013 0.207053 16.4217 0.0302728 17.0052 0C17.0222 0.153772 17.0293 0.307554 17.0293 0.460116V0.460131Z" fill="white"/>
</svg>
