<svg width="24" height="24" viewBox="0 0 24 24" fill="none" xmlns="http://www.w3.org/2000/svg">
<path fill-rule="evenodd" clip-rule="evenodd" d="M23.04 11.7613C23.04 10.9459 22.9668 10.1618 22.8309 9.40906H12V13.8575H18.1891C17.9225 15.295 17.1123 16.5129 15.8943 17.3284V20.2138H19.6109C21.7855 18.2118 23.04 15.2636 23.04 11.7613Z" fill="#4285F4"/>
<path fill-rule="evenodd" clip-rule="evenodd" d="M11.9995 22.9998C15.1045 22.9998 17.7077 21.97 19.6104 20.2137L15.8938 17.3282C14.864 18.0182 13.5467 18.4259 11.9995 18.4259C9.00425 18.4259 6.46902 16.403 5.5647 13.6848H1.72266V16.6644C3.61493 20.4228 7.50402 22.9998 11.9995 22.9998Z" fill="#34A853"/>
<path fill-rule="evenodd" clip-rule="evenodd" d="M5.56523 13.6851C5.33523 12.9951 5.20455 12.2581 5.20455 11.5001C5.20455 10.7422 5.33523 10.0051 5.56523 9.31512V6.33557H1.72318C0.944318 7.88807 0.5 9.64443 0.5 11.5001C0.5 13.3558 0.944318 15.1122 1.72318 16.6647L5.56523 13.6851Z" fill="#FBBC05"/>
<path fill-rule="evenodd" clip-rule="evenodd" d="M11.9995 4.57386C13.6879 4.57386 15.2038 5.15409 16.3956 6.29364L19.694 2.99523C17.7024 1.13955 15.0992 0 11.9995 0C7.50402 0 3.61493 2.57705 1.72266 6.33545L5.5647 9.315C6.46902 6.59682 9.00425 4.57386 11.9995 4.57386Z" fill="#EA4335"/>
</svg>
