<svg width="40" height="40" viewBox="0 0 40 40" fill="none" xmlns="http://www.w3.org/2000/svg">
<path fill-rule="evenodd" clip-rule="evenodd" d="M10.0563 20.3138C10.1 20.4314 10.1691 20.5418 10.2636 20.6363L18.4636 28.8363C18.8151 29.1878 19.3849 29.1878 19.7364 28.8363C20.0879 28.4848 20.0879 27.915 19.7364 27.5635L13.0728 20.8999H29.1C29.5971 20.8999 30 20.497 30 19.9999C30 19.5029 29.5971 19.0999 29.1 19.0999H13.0728L19.7364 12.4363C20.0879 12.0848 20.0879 11.515 19.7364 11.1635C19.3849 10.812 18.8151 10.812 18.4636 11.1635L10.2636 19.3635C10.167 19.4601 10.0969 19.5732 10.0534 19.6938C10.0271 19.7666 10.0099 19.8439 10.0032 19.9241C9.999 19.9738 9.99894 20.0239 10.003 20.0737C10.0098 20.1575 10.0281 20.238 10.0563 20.3138Z" fill="white"/>
</svg>
